<svg xmlns="http://www.w3.org/2000/svg" width="800" height="800" viewBox="0 0 32.001 32.001">
	<path fill="gold"
		d="M30.84 16.097c-1.078-1.006-2.672-1.285-3.838-1.34a25.35 25.35 0 012.522-1.058c.293-.133.488-.322.604-.562.425-.878-.221-2.42-.99-4.269-.172-.409-.35-.834-.521-1.269l-.031-.078c-.9-2.264-1.396-3.511-1.819-6.457a.598.598 0 00-.506-.519c-1.173-.216-4.479 2.275-5.53 4.165-2.262 4.068-2.219 9.678-1.994 11.122-.271-.205-.621-.429-.957-.471-.031-.858-.119-2.234-.367-3.188a.206.206 0 00.086-.21c-.023-.138-.049-.276-.071-.415-.046-.262-.442-.15-.397.109.023.139.049.277.071.415.017.096.08.141.151.147.24.926.328 2.287.361 3.139a.663.663 0 00-.395.161.741.741 0 00-.163.206c-.776-.411-2.045-1.154-2.946-2.042a.196.196 0 00-.033-.231l-.329-.353c-.182-.194-.473.098-.292.292l.329.352a.178.178 0 00.204.049c.922.911 2.216 1.668 3.002 2.083-.181.584.229 1.375.229 1.375l.002.004-.05-.011c-.972-.738-6.188-3.399-10.988-3.125-2.158.122-5.842 2.015-6.158 3.165a.601.601 0 00.247.683c2.468 1.663 3.374 2.652 5.02 4.449l.057.062c.316.345.621.688.915 1.021 1.328 1.499 2.437 2.75 3.412 2.75.265 0 .521-.093.768-.298a25.017 25.017 0 012.054-1.812c-.46 1.075-.903 2.63-.468 4.04.341 1.1 1.157 1.924 2.426 2.448 1.495.619 2.758.842 3.807.842 2.102 0 3.345-.894 3.87-1.271.054-.039.099-.071.137-.096.409-.273.322-1.035.086-2.731-.14-.999-.36-2.588-.165-3.161.059.073.107.135.145.176.658.741 1.418.364.865-.66a3.244 3.244 0 01-.074-.141c.67.236 1.769.969 2.494 1.454 1.424.951 2.071 1.361 2.496 1.112.039-.023.088-.05.146-.081.569-.309 1.913-1.039 2.829-2.931.457-.944.807-2.179.9-3.793.074-1.369-.312-2.462-1.153-3.248zm-1.223-.05a7.6 7.6 0 01.16.271 8.373 8.373 0 00-4.938-.419c.266-.154.535-.305.808-.452.381-.038 2.439-.194 3.97.6zm-.336-2.96c-2.393.831-7.311 3.274-8.805 5.444-.031-.06-.062-.12-.096-.179.049-.187.22-.845.466-1.73.552-.36 5.729-3.68 8.679-3.781a.495.495 0 01-.244.246zm.32-.578c-2.756.041-7.292 2.791-8.619 3.634.101-.357.211-.739.328-1.133.489-.202 3.241-1.349 4.233-2.042.955-.666 3.121-1.412 3.935-1.319.089.335.135.625.123.86zm-.22-1.19c-1.094-.033-3.186.792-4.025 1.378-.609.426-1.954 1.048-2.968 1.493 1.142-.915 3.062-2.509 3.657-3.354.617-.872 2.229-.825 2.875-.768.181.45.341.872.461 1.251zm-.852-2.196c.086.205.17.405.25.602-.783-.052-2.335-.023-3.003.921-.601.851-2.694 2.569-3.786 3.439.579-.993 1.604-2.721 2.18-3.537.738-1.043 3.885-1.427 4.339-1.477a.627.627 0 00.02.052zm-.556-1.357l.031.078c.123.31.248.613.371.911-.722.083-3.688.491-4.475 1.604-.63.891-1.783 2.851-2.328 3.788.424-1.37.903-2.763 1.336-3.658.182-.373.344-.638.481-.788.918-.992 3.582-1.89 4.487-2.174.034.079.064.158.097.239zm-.217-.547c-.953.298-3.633 1.205-4.607 2.259-.163.176-.339.46-.535.868-.961 1.984-2.107 6.229-2.46 7.573l-.452-.842c.123-.557 1.086-4.898 1.978-6.741.093-.192.183-.352.267-.475.84-1.225 4.338-2.985 5.467-3.532.106.287.22.582.342.89zm-.461-1.201c-1.119.539-4.719 2.338-5.623 3.656-.094.136-.19.311-.291.518-.813 1.681-1.654 5.263-1.926 6.472a15.213 15.213 0 01-.108-.185c.032-.185.864-4.8 2.14-7.435l.04-.08c.039-.081.082-.16.126-.239.352-.258 3.562-2.602 5.463-3.212.056.168.118.336.179.505zm-.283-.818c-1.499.483-3.697 1.944-4.842 2.747C23.66 6 26.25 4.515 26.728 4.251c.088.328.184.642.284.949zm-.731-2.981c.072.417.149.798.23 1.158-1.402.455-2.582 1.197-3.555 2.038.751-1.151 2.552-2.602 3.325-3.196zm-.164-1.03c.033.229.067.449.103.661-.813.616-3.49 2.726-3.877 4.082l.042.012a14.239 14.239 0 00-1.746 2.091c.833-1.821 2.109-4.227 3.701-6.018.814-.544 1.523-.874 1.777-.828zm-4.811 3.843c.435-.78 1.172-1.552 1.946-2.199-1.549 2.073-2.729 4.574-3.393 6.153.309-1.358.77-2.737 1.447-3.954zm-1.754 5.62l.009.003c.021-.053 2.109-5.345 7.025-6.957.019.075.035.15.055.223-.26.138-4.077 2.203-5.41 4.896l-.041.083c-.857 1.775-1.518 4.424-1.874 6.061-.05-.987-.021-2.564.236-4.309zM6.219 14.779c1.39-.079 2.831.106 4.189.421-1.712-.09-4.477-.117-7.017.374.921-.416 1.938-.745 2.828-.795zM.665 17.437c.069-.249.675-.743 1.521-1.239 2.305-.653 5.027-.756 7.028-.712-.801.122-1.71.327-2.643.661l.007-.043c-1.388-.243-4.454 1.25-5.362 1.712-.177-.124-.359-.25-.551-.379zm.855.595c.872-.437 2.962-1.426 4.324-1.6-1.18.509-2.362 1.249-3.382 2.312-.29-.229-.598-.465-.942-.712zm1.2.92c3.592-3.723 9.265-3.3 9.321-3.295l.001-.01c1.682.53 3.114 1.188 3.981 1.664-1.629-.393-4.3-.952-6.271-.952H9.66c-3.005.027-6.527 2.565-6.764 2.739l-.176-.146zm.435.367c.445-.314 2.91-1.999 5.313-2.493-1.22.681-3.493 2.023-4.581 3.162a21.04 21.04 0 00-.732-.669zm.968.901c1.378-1.447 4.887-3.317 5.271-3.521.091-.005.181-.009.271-.009h.09c2.479 0 6.617.938 7.949 1.257l.237.338-.043-.012c-.196-.048-4.848-1.18-7.066-1.18-.229 0-.43.012-.593.037-1.58.238-4.768 2.694-5.74 3.469l-.376-.379zm.606.621c.983-.778 4.091-3.161 5.56-3.384.146-.021.33-.033.543-.033 2.048 0 6.374 1.022 6.929 1.156l.562.773c-1.363-.27-5.684-1.084-7.888-1.084-.454 0-.786.034-1.016.104-1.373.419-3.356 2.437-4.039 3.164a63.619 63.619 0 00-.651-.696zm1.104 1.192l-.055-.062-.174-.19c.646-.688 2.615-2.697 3.91-3.093.195-.061.505-.09.92-.09.993 0 2.456.175 3.874.389-1.081.083-3.348.27-4.424.447-1.348.224-3.009 2.726-3.393 3.331a51.664 51.664 0 00-.658-.732zm.922 1.03l-.036-.042c.24-.383 1.956-3.052 3.219-3.261.984-.164 2.987-.334 4.134-.425-1.26.604-3.719 1.741-4.746 1.912-1.141.19-1.843 1.574-2.137 2.304-.143-.159-.286-.322-.434-.488zm.683.763c.23-.606.89-2.078 1.943-2.252 1.02-.169 3.291-1.203 4.612-1.833-.843.719-1.988 1.657-2.637 2.021-.895.501-2.549 2.024-2.994 3.022a17.11 17.11 0 01-.924-.958zm1.18 1.192c.271-.773 1.886-2.398 2.9-2.967 1.056-.593 3.286-2.569 3.682-2.923.406.066.798.134 1.163.198-1.337.827-5.788 3.713-7.025 6.177-.217-.093-.46-.26-.72-.485zm1.38.448a.495.495 0 01-.328.112c1.375-2.609 6.616-5.823 7.183-6.166 1.058.191 1.796.343 1.815.347l.358.073c.011.015.021.028.029.043-2.551.146-7.191 3.723-9.057 5.591zm2.691 1.853a7.871 7.871 0 01-.174-.261c-.049-1.725.989-3.509 1.189-3.836.25-.182.503-.358.757-.529a8.365 8.365 0 00-1.772 4.626zm.311.42a8.08 8.08 0 012.531-5.733c.398-.242.79-.464 1.168-.657a41.723 41.723 0 00-1.56 3.504c-.61 1.582-.356 3.506-.123 4.6-.886-.474-1.555-1.136-2.016-1.714zm3.614 2.264a5.139 5.139 0 01-1.215-.368c-.229-.99-.574-3.049.05-4.663a41.247 41.247 0 011.743-3.863 7.665 7.665 0 011.301-.479c-.265.73-.744 2.11-1.049 3.33-.326 1.308-.516 4.456-.593 6.072-.08-.01-.158-.015-.237-.029zm3.36-.217a7.894 7.894 0 01-2.795.288c.079-1.601.267-4.765.584-6.034.331-1.321.868-2.836 1.106-3.485.065-.009.129-.016.19-.021.108.438.582 2.408.797 4.396.164 1.484.146 3.593.118 4.856zm.332-.098c.028-1.282.039-3.333-.12-4.793-.245-2.263-.822-4.511-.828-4.534l-.045.012.006-.126a204.65 204.65 0 002.439 3.4c-.467.576-.325 1.906-.059 3.817.068.499.153 1.11.184 1.558a9.263 9.263 0 01-1.577.666zm7.001-4.353a23.098 23.098 0 01-1.323-.844c-1.45-.969-2.519-1.637-3.241-1.633-.426-.816-1.048-2.018-1.658-3.181.656.526 1.912 1.499 3.246 2.333 1.246.778 3.097 1.662 4.264 2.194a9.513 9.513 0 01-1.288 1.131zm1.519-1.385c-1.149-.522-3.056-1.427-4.322-2.219-1.692-1.059-3.262-2.343-3.607-2.631.031-.053.062-.108.102-.163.688.068 2.285.243 3.619.521 1.28.268 4.211 1.476 5.688 2.103-.374.967-.929 1.764-1.48 2.389zm1.658-2.93c-.021.078-.051.149-.076.226-1.488-.633-4.404-1.835-5.724-2.109-1.231-.258-2.685-.427-3.456-.506.258-.311.598-.635.997-.963a41.244 41.244 0 014.237.113c1.725.143 3.427 1.348 4.218 1.986a5.084 5.084 0 01-.196 1.253zm-3.994-3.57a41.267 41.267 0 00-3.834-.122c.338-.256.707-.513 1.1-.766a8.08 8.08 0 016.265.218c.319.668.624 1.559.664 2.562-.884-.687-2.505-1.752-4.195-1.892z" />
</svg>