<svg xmlns="http://www.w3.org/2000/svg" viewBox="0 0 454.929 454.929">
	<path fill="#999" d="M141.271 113.25h38.3v252.26h-38.3z" />
	<path fill="#9a87c9" d="M127.248 113.248l33.171-85.398 33.17 85.398z" />
	<path
		d="M166.583 157.403h-12.328v-29.058a6.164 6.164 0 0112.328 0v29.058zM166.583 210.236h-12.328v-29.058a6.164 6.164 0 0112.328 0v29.058z"
		fill="#666" />
	<path fill="gray" d="M141.271 113.25h38.3v6h-38.3z" />
	<path fill="#8172af" d="M160.419 27.85l-10.137 85.393-23.034.005z" />
	<path fill="#999" d="M326.956 120.511h38.3v252.26h-38.3z" />
	<path fill="#9a87c9" d="M312.933 120.507l33.17-85.398 33.171 85.398z" />
	<path d="M352.27 177.41h-12.328v-29.058a6.164 6.164 0 0112.328 0v29.058z" fill="#666" />
	<path fill="gray" d="M326.956 120.51h38.3v6h-38.3z" />
	<path fill="#8172af" d="M346.103 35.109l-10.137 85.393-23.033.005z" />
	<path fill="#999" d="M94.771 158.368h38.3v252.27h-38.3z" />
	<path fill="#a99ad8" d="M80.751 158.373l33.17-85.398 33.171 85.398z" />
	<path fill="#b3b3b3" d="M268.561 85.398h38.3v252.26h-38.3z" />
	<path fill="#a798d8" d="M254.537 85.398L287.708 0l33.17 85.398z" />
	<path
		d="M293.872 129.553h-12.328v-29.058a6.164 6.164 0 0112.328 0v29.058zM293.872 183.12h-12.328v-29.058a6.164 6.164 0 0112.328 0v29.058zM293.872 236.687h-12.328v-29.058a6.164 6.164 0 0112.328 0v29.058zM120.085 215.453h-12.328v-29.058a6.164 6.164 0 0112.328 0v29.058z"
		fill="#666" />
	<path fill="#b3b3b3" d="M196.481 153.528h61.97v286.49h-61.97z" />
	<path fill="#9a87c9" d="M173.794 153.532l53.671-65.247 53.67 65.247z" />
	<g fill="#666">
		<path
			d="M220.4 203.677h-14v-33a7 7 0 1114 0v33zM220.4 263.677h-14v-33a7 7 0 1114 0v33zM248.529 203.677h-14v-33a7 7 0 1114 0v33zM248.529 263.677h-14v-33a7 7 0 1114 0v33z" />
	</g>
	<path fill="#ccc" d="M68.131 304.158h318.67v150.77H68.131z" />
	<g fill="#ccc">
		<path
			d="M72.681 304.158h17.9v4.04h-17.9zM101.841 304.158h17.91v4.04h-17.91zM131.013 288.198h17.904v20h-17.904zM160.179 288.198h17.904v20h-17.904zM189.346 288.198h17.904v20h-17.904zM218.513 288.198h17.904v20h-17.904zM247.679 288.198h17.904v20h-17.904zM276.846 288.198h17.904v20h-17.904zM306.013 288.198h17.904v20h-17.904zM335.181 304.158h17.9v4.04h-17.9zM364.341 304.158h17.91v4.04h-17.91z" />
	</g>
	<g fill="#999">
		<path d="M68.131 304.158h54.99v150.77h-54.99zM331.811 304.158h54.99v150.77h-54.99z" />
	</g>
	<path fill="#b3b3b3" d="M24.601 247.008h90.19v207.92h-90.19z" />
	<g fill="#b3b3b3">
		<path
			d="M11.414 196.065h15.507v17.323H11.414zM36.677 196.065h15.507v17.323H36.677zM61.94 196.065h15.507v17.323H61.94zM87.203 196.065h15.507v17.323H87.203zM112.466 196.065h15.507v17.323h-15.507z" />
	</g>
	<path fill="#b3b3b3" d="M11.414 213.388h116.559v33.621H11.414zM340.141 247.008h90.19v207.92h-90.19z" />
	<g fill="#b3b3b3">
		<path
			d="M326.956 196.065h15.507v17.323h-15.507zM352.219 196.065h15.507v17.323h-15.507zM377.482 196.065h15.507v17.323h-15.507zM402.745 196.065h15.507v17.323h-15.507zM428.008 196.065h15.507v17.323h-15.507z" />
	</g>
	<path fill="#b3b3b3" d="M326.956 213.388h116.559v33.621H326.956z" />
	<path fill="gray" d="M94.771 158.368h38.3v6h-38.3zM268.561 85.398h38.3v6h-38.3z" />
	<path fill="#999"
		d="M196.481 153.528h61.97v6h-61.97zM24.601 247.008h90.19v6h-90.19zM340.141 247.008h90.19v6h-90.19z" />
	<path fill="#8172af"
		d="M113.921 72.975l-10.137 85.393-23.033.005zM287.708 0l-10.137 85.393-23.034.005zM227.465 88.285l-21.558 65.243-32.113.004z" />
	<path d="M270.851 388.808v66.12h-86.77v-66.12c0-23.92 19.46-43.38 43.38-43.38 23.93 0 43.39 19.46 43.39 43.38z"
		fill="#b3b3b3" />
	<path
		d="M227.465 353.425c-19.544 0-35.387 15.844-35.387 35.387v66.117h70.775v-66.117c-.001-19.544-15.844-35.387-35.388-35.387z"
		fill="#666" />
	<g fill="#666">
		<path
			d="M60.964 312.953H48.636v-29.058a6.164 6.164 0 0112.328 0v29.058zM406.296 312.953h-12.328v-29.058a6.164 6.164 0 0112.328 0v29.058z" />
	</g>
	<g fill="#666">
		<path
			d="M155.839 339.392h-12.328v-12.788a6.164 6.164 0 0112.328 0v12.788zM194.734 339.392h-12.328v-12.788a6.164 6.164 0 0112.328 0v12.788zM233.63 339.392h-12.328v-12.788a6.164 6.164 0 0112.328 0v12.788zM272.526 339.392h-12.328v-12.788a6.164 6.164 0 0112.328 0v12.788zM311.421 339.392h-12.328v-12.788a6.164 6.164 0 0112.328 0v12.788z" />
	</g>
	<path fill="#9a87c9" d="M224.965 50.198h5v62.531h-5z" />
	<circle cx="227.465" cy="50.198" r="8.149" fill="#f9e575" />
</svg>