<svg xmlns="http://www.w3.org/2000/svg" viewBox="0 0 519 600">
	<path fill="#000000"
		d="M231 601c-10.354 0-20.708 0-31.64-.375-10.504-3.08-20.575-5.355-30.31-8.63-7.523-2.533-9.365-6.542-8.492-14.33.39-3.476.862-6.942 1.285-10.414 9.116-74.93 21.327-149.32 38.772-222.801.377-1.59.337-3.28.492-4.923-1.404 1.041-1.824 2.232-2.174 3.443-21.972 76.002-40.219 152.891-54.893 230.63-1.105 5.854-2.336 7.27-7.334 6.068-12.267-2.95-24.694-5.565-36.573-9.705-13.906-4.846-26.671-12.06-36.27-23.846-3.837-4.712-4.637-9.373-2.456-15.24 28.888-77.691 59.878-154.478 97.485-228.447.647-1.273.999-2.697 1.488-4.05l-1.186-.527c-.937 1.503-1.95 2.963-2.8 4.514-27.314 49.94-53.216 100.588-75.695 152.91-9.19 21.388-17.639 43.093-26.42 64.656-.99 2.435-1.516 5.735-5.378 3.258C31.216 511.846 13.733 500.251 1 483c0-1.389 0-2.778.319-4.726 35.888-70.216 76.01-137.089 122.349-200.161 23.01-31.321 46.994-61.79 75.696-88.25 4.158-3.833 7.844-4.995 13.39-3.048 17.824 6.26 36.339 8.593 55.126 6.867 11.257-1.035 22.39-3.42 33.578-5.197l-.227-1.657c-6.492 0-12.986.08-19.476-.015-21.587-.317-42.824-2.813-63.467-9.6-7.53-2.475-11.884-6.82-13.686-14.783-2.121-9.375-5.213-18.565-8.375-27.664-7.42-21.36-15.733-42.428-22.55-63.973-6.46-20.411-9.737-41.498-7.922-63.074.152-1.806.82-3.569 1.247-5.352.91.795 1.002 1.446 1.145 2.085 3.257 14.585 6.485 29.177 9.804 43.748.846 3.715 2.816 4.802 6.546 2.863 9.257-4.812 19.203-5.16 29.258-3.576 15.158 2.386 29.255 7.722 42.119 16.1 3.537 2.304 6.496 2.24 10.109.082 5.557-3.318 11.232-6.6 17.213-9.017 18.078-7.303 36.413-12.184 55.588-3.353.958.44 3.88-.985 4.292-2.12C348.724 33.62 352.316 17.599 353 1c.444 0 .889 0 1.629.436.66 4.913 1.29 9.388 1.346 13.87.308 24.447-4.788 48.011-12.666 70.955-7.183 20.922-15.357 41.503-22.606 62.404-2.333 6.727-3.114 13.993-4.606 21.012l1.427.51c1.369-1.572 2.653-3.23 4.123-4.702 4.93-4.938 9.568-10.26 14.988-14.596 7.12-5.695 15.516-8.287 24.795-6.88 7.3 1.108 14.232 6.065 15.706 11.573-21.896-.962-37.533 11.118-53.412 25.393 3.608 2.267 6.458 4.515 9.663 5.99 12.137 5.588 24.932 5.25 37.76 3.454 17.167-2.404 32.82-9.6 48.795-15.763 15.573-6.007 31.346-11.307 48.236-11.964 11.563-.45 22.62 1.647 32.976 7.118-19.746-.434-38.262 4.632-56.375 11.68-10.542 4.101-21.04 8.325-31.671 12.184-28.638 10.396-57.124 12.506-85.19-2.09-1.006-.523-2.31-.47-2.75-.55 13.263 14.744 27.321 29.193 40.05 44.731 51.027 62.294 94.083 129.92 132.537 200.55 7.53 13.833 14.836 27.787 22.245 41.685 0 1.714 0 3.429-.336 5.636-1.744 2.344-3.037 4.297-4.576 6.03-14.318 16.124-31.767 28.293-49.98 39.503-5.344 3.29-5.842 3.092-8.085-2.627-14.328-36.539-28.17-73.281-43.24-109.512-16.35-39.31-35.166-77.499-55.914-114.704-.733-1.313-1.927-2.368-2.905-3.544 1.181 4.438 3.15 8.196 4.978 12.021 35.64 74.606 63.811 152.107 89.43 230.602 1.235 3.785.375 6.557-2.798 8.645-25.8 16.975-53.58 28.257-84.95 28.262-18.237.003-36.318 1.26-54.09 5.257-19.311 4.344-38.464 9.394-57.73 13.95-6.196 1.464-12.532 2.337-18.804 3.481z" />
</svg>