<svg xmlns="http://www.w3.org/2000/svg" viewBox="0 0 455 455" width="512" height="512">
	<path d="M362.5 235v220-220zM382.5 275l-20 180H275l-47.5-30-47.5 30H62.5V295z" fill="#ff3b3b" />
	<path fill="#cb2e3e" d="M62.5 235v60h300v160h30V235z" />
	<path d="M412.5 265V140v125z" fill="#ff9387" />
	<path fill="#ff6761" d="M412.5 140v125h-30l-20-62.5 20-62.5z" />
	<path fill="#ff9387" d="M382.5 140v125H275l-20-67.5 20-77.5 51.53 20zM42.5 140v125H180l20-67.5-20-77.5-51.53 20z" />
	<path fill="#ffb751" d="M275 235v60l-47.5 30-47.5-30v-60z" />
	<path fill="#ffe29e" d="M180 120h95v145h-95z" />
	<path
		d="M227.5 140h99.03c10.48 0 20.94-4.08 28.94-12.08 16-16 16-41.94 0-57.94s-41.95-16-57.95 0l-55.27 15.27L227.5 140z"
		fill="#ffb751" />
	<path
		d="M227.5 40.97l-20 30.003 20 69.027 70.02-70.02c7.42-7.42 11.93-17.69 11.93-29.01C309.45 18.34 291.1 0 268.47 0c-22.63 0-40.97 18.34-40.97 40.97z"
		fill="#ffd764" />
	<path
		d="M145.55 40.97c0 11.32 4.51 21.59 11.93 29.01l14.27 54.27L227.5 140V40.97C227.5 18.34 209.16 0 186.53 0s-40.98 18.34-40.98 40.97z"
		fill="#ffe29e" />
	<path
		d="M99.53 69.98c-16 16-16 41.94 0 57.94 8 8 18.46 12.08 28.94 12.08h99.03l-70.02-70.02c-16-16-41.95-16-57.95 0zM180 295h95v160h-95z"
		fill="#ffd764" />
</svg>