<svg xmlns="http://www.w3.org/2000/svg" viewBox="75 140 500 270">
  <path fill="#c533ff"
    d="M354.982 299.047c4.366-9.27 5.126-18.227.45-27.229-1.488-2.866.34-4.447 2.315-5.747 4.644-3.055 10.668-1.182 14.067 4.37 3.472 5.673 4.398 12.145 5.492 18.54.475 2.779.832 5.577 1.384 9.325 3.316-4.98 6.107-9.367 9.096-13.614 3.842-5.457 7.935-10.705 13.46-14.645 3.065-2.187 6.434-3.523 10.157-3.832 7.775-.646 12.768 3.97 12.925 11.745.097 4.786-1.588 9.146-3.031 13.575-4.982 15.285-8.272 30.867-7.915 47.038.14 6.348 1.095 12.604 3.347 18.582.64 1.699 1.445 3.391 2.477 4.876 4.983 7.167 11.887 7.414 17.23.54 4.155-5.349 6.481-11.598 8.156-18.097.54-2.093.837-4.25 1.41-6.332 1.259-4.575.758-8.312-2.438-12.434-11.043-14.243-9.545-36.617 2.686-48.693 8.33-8.226 22.682-11.069 32.428-6.423 9.798 4.67 13.316 17.321 7.34 26.401-2.451 3.726-7.07 5.18-9.826 2.882-2.006-1.673-3.212-3.436.32-5.192 4.958-2.466 6.481-8.166 3.851-13.114-2.591-4.877-7.653-6.316-12.75-3.2-8.021 4.905-11.346 12.886-12.877 21.631-1.606 9.181.106 17.927 5.059 25.895 3.848 6.192 8.299 7.891 15.288 5.762 11.254-3.43 18.92-11.425 25.633-20.556 1.52-2.068.966-4.491.982-6.789.136-19.863 16.95-35.11 36.805-33.345 12.043 1.071 16.165 8.665 10.583 19.497-4.398 8.533-10.971 12.091-20.875 11.096-2.27-.228-4.244-.084-4.508 2.523-.845 8.317-1.552 16.676 3.176 24.268 3.275 5.259 8.442 6.886 14.29 4.601 9.542-3.728 16.015-14.94 14.305-25.067-.408-2.418.31-3.984 2.496-4.72 2.894-.975 5.364.042 6.94 2.522 1.794 2.826 1.595 6.06 1.031 9.227-2.142 12.025-12.198 22.02-24.712 24.606-12.952 2.675-26.611-2.671-33.394-12.984-1.26-1.915-1.863-4.278-4.302-6.179-13.307 14.724-28.97 22.697-48.981 15.196-2.15 1.248-1.992 3.22-2.371 4.958-1.603 7.344-3.673 14.53-7.266 21.19-8.534 15.82-23.888 16.98-34.838 2.596-6.702-8.803-9.058-19.199-10.383-29.844-1.922-15.437-1.355-30.91-.043-46.37.125-1.471.017-2.963.017-4.993-2.861 1.036-4.183 3.174-5.345 5.209-8.8 15.407-15.913 31.507-19.024 49.099-.655 3.705-2.17 4.457-5.42 3.244-3.78-1.411-5.652-4.467-7.14-7.909-3.009-6.96-3.249-14.48-4.373-22.611-3.896 6.938-6.812 13.636-11.465 19.295-3.022 3.677-6.455 6.767-10.888 8.535-9.523 3.799-17.829-.298-20.644-10.137-.68-2.373-1.138-4.81-1.743-7.41-2.383 1.246-2.741 3.554-3.802 5.336-4.068 6.83-9.212 12.269-17.474 13.705-7.481 1.3-12.948-1.28-16.843-7.83-1.63-2.74-2.825-5.671-3.629-8.74-.787-3.003-1.404-6.049-2.276-9.865-4.07 7.012-7.315 13.617-12.3 19.036-3.971 4.319-8.536 7.557-14.837 6.612-7.662-1.15-12.902-8.286-13.881-18.46-.913-9.482 1.66-18.492 3.522-27.606 1.438-7.043 2.482-14.099.726-21.255-.28-1.141-.585-2.444.406-3.303 3.64-3.156 8.03-3.992 12.629-3.337 3.952.564 5.902 3.271 6.596 7.136 1.645 9.16-.546 17.877-3.005 26.538-2.136 7.523-4.698 14.951-5.743 22.721-.537 3.995-1.91 9.295 2.868 11.072 4.438 1.652 6.493-3.314 8.288-6.419 7.015-12.136 12.83-24.818 16.138-38.545.705-2.925.693-5.719-.725-8.243-2.485-4.424-.013-6.589 3.507-8.105 5.41-2.33 10.325-.166 12.536 5.449 2.6 6.602 2.276 13.371.722 20.15a167.446 167.446 0 00-3.522 22.158c-.243 2.658-.286 5.307.3 7.953 1.61 7.284 6.105 9.206 12.422 5.145 4.974-3.197 7.799-8.17 10.195-13.323 4.218-9.074 7.334-18.571 10.348-28.104 1.145-3.62.88-7.002-1.283-9.985-1.965-2.712-1.084-4.593 1.034-6.446 3.564-3.116 7.73-3.795 12.164-2.65 4.285 1.104 5.863 4.5 6.7 8.487 1.72 8.19-.907 15.842-2.836 23.568-1.812 7.26-4.531 14.314-5.162 21.837-.216 2.567-.958 5.688 1.995 7.205 3.17 1.63 5.795-.299 8.089-2.32 6.834-6.027 10.395-14.153 14-22.224 1.22-2.735 2.24-5.56 3.49-8.706m174.785-2.353c7.418-1.022 13.437-6.878 13.806-13.431.229-4.055-1.447-5.28-5.045-3.43-5.76 2.966-9.096 8.047-11.484 13.852-.786 1.913.107 2.808 2.723 3.009z
    M157.235 362.211c-1.72 1.25-3.152 2.302-5.36 3.923 13.28 7.149 23.8 17.315 37.696 21.677 9.178 2.88 18.376 3.318 27.004-2.041 6.407-3.98 8.15-7.968 6.876-15.555-.367-2.187.99-2.944 2.646-3.564 5.702-2.134 11.276 1.624 12.14 8.188 1.323 10.068-4.707 20.252-14.697 24.267-13.37 5.373-26.434 4.082-39.044-2.53-11.272-5.911-21.149-13.92-31.206-21.577-5.617-4.277-10.318-4.989-17.135-2.142-13.029 5.44-26.831 7.76-41.041 4.555-5.597-1.263-9.347-4.388-10.189-10.221-.85-5.89 1.612-10.312 6.54-13.54 7.37-4.826 15.477-4.758 23.644-3.394 8.282 1.383 16.01 4.64 23.378 8.543 3.456 1.83 5.987 1.448 9.109-.6 21.246-13.944 35.265-33.684 45.233-56.545 9.329-21.398 13.724-43.817 11.802-67.2-1.208-14.707-5.003-28.497-15.969-39.38-16.25-16.128-44.336-16.344-60.656-.37-14.974 14.655-22.9 32.927-26.94 53.075-4.347 21.687-4.43 43.31 2.046 64.692 1.262 4.168 3.034 8.103 5.215 11.865 6.069 10.472 16.156 12.966 26.335 6.373 6.861-4.443 11.006-11.009 13.74-18.533 4.076-11.224 7.123-22.64 4.079-34.658-1.894-7.476-5.763-13.485-13.944-15.355-1.635-.374-2.253-1.245-2.164-2.78.114-1.97.913-3.581 2.79-4.39 4.014-1.729 7.82-1.026 11.442 1.182 6.39 3.894 9.296 10.25 10.162 17.068 2.965 23.321-3.266 43.681-21.76 59.048-11.362 9.44-23.795 8.993-36.12-.428-12.751-9.747-19.443-23.334-21.941-38.642-5.719-35.043.761-67.315 24.542-94.784 25.22-29.133 74.636-30.88 100.681-3.758 10.004 10.417 15.114 23.244 16.08 37.35 3.686 53.877-17.363 96.111-61.06 127.383-1.218.872-2.445 1.733-3.954 2.798m-43.349 10.359c7.323-1.651 14.584-3.467 22.147-7.751-7.026-3.59-12.957-6.503-19.504-7.857-5.43-1.124-10.938-1.356-16.224.583-3.276 1.201-5.725 3.585-5.895 7.332-.163 3.61 2.662 5.064 5.373 6.45 4.234 2.164 8.768 1.349 14.103 1.243zM448.32 230.998c.001 3.66.017 6.823.003 9.986-.012 2.843-.444 5.864 3.643 6.44.834.117 1.406.864 1.343 1.84-.08 1.216-.873 1.81-1.965 1.814-4.822.014-9.644-.022-14.465-.101-.855-.014-1.634-.495-1.847-1.407-.28-1.198.431-1.972 1.48-2.212 3.012-.69 3.17-2.875 3.146-5.366-.068-6.65-.023-13.303-.739-20.185-3.134 8.26-6.24 16.532-9.425 24.773-.737 1.907-.873 4.501-3.874 4.463-2.871-.036-3.23-2.422-4.006-4.402-3.126-7.977-6.254-15.953-10.287-23.713 0 7.075-.003 14.151.001 21.227.001 1.858 1.272 2.531 2.79 3.026 1.176.384 2.194 1.028 1.784 2.502-.315 1.135-1.354 1.422-2.377 1.432a366.46 366.46 0 01-9.981-.023c-1.05-.018-1.996-.468-2.185-1.64-.199-1.231.677-1.971 1.672-2.093 3.68-.448 3.804-2.953 3.774-5.825-.08-7.822-.053-15.646-.013-23.47.013-2.45-.019-4.719-3.173-5.276-1.236-.218-2.201-.98-1.874-2.442.336-1.502 1.653-1.398 2.81-1.468.497-.03.998-.036 1.497-.033 11.676.078 8.984-1.045 13.174 8.756 2.843 6.65 4.773 13.696 8.755 20.991 3.323-8.967 6.293-17.026 9.298-25.073 1.462-3.916 12.147-6.861 15.252-4.17 1.303 1.128 1.131 2.806-.408 3.161-4.496 1.038-3.758 4.41-3.788 7.503-.033 3.496-.012 6.991-.016 10.985zM352.892 363.773c11.632 6.824 14.01 24.703 4.869 34.074-9.388 9.623-25.86 5.985-30.083-6.808-2.893-8.769-2.37-17.303 4.544-24.14 5.794-5.728 12.832-6.576 20.67-3.126m-15.551 30.258c1.888 3.228 4.326 5.463 8.445 4.88 4.335-.614 6.165-3.8 7.164-7.414 1.715-6.2 1.61-12.507-.156-18.704-1.144-4.015-3.803-7.066-8.055-7.037-4.505.032-7.214 3.387-8.268 7.504-1.71 6.683-2.152 13.453.87 20.77zM294.898 397.89c1.706 1.064 4.704.144 4.227 2.954-.382 2.248-2.77 1.5-4.23 1.361-3.5-.334-7.415 1.323-11.905-2.299 7.397-1.33 5.96-6.146 6-10.296.057-5.832.077-11.666.016-17.498-.025-2.432.411-5.196-3.08-5.942-.904-.192-1.267-1.04-1.081-1.96.194-.958.98-1.171 1.828-1.397 5.207-1.389 9.665.29 12.928 4.802 4.632 6.403 9.326 12.762 15.028 18.737 0-5.441-.014-10.883.005-16.325.01-2.68-1.888-3.238-3.945-3.62-1.258-.233-2.339-.686-2.062-2.211.22-1.214 1.323-1.397 2.34-1.407 3.331-.033 6.664-.026 9.996-.003 1.047.008 2.034.275 2.299 1.475.263 1.191-.386 1.95-1.47 2.226-3.46.884-3.417 3.548-3.393 6.318.065 7.832.116 15.665.04 23.496-.02 2.002 1.121 4.78-1.533 5.717-2.895 1.022-3.945-1.89-5.257-3.663-5.84-7.888-11.576-15.853-17.828-23.725.121 7.732-2.04 15.454 1.077 23.26zM488.292 230.804c-5.366-3.684-6.607-8.664-5.322-14.265 1.266-5.518 5.917-7.159 10.76-8.36 3.535-.876 6.95-.267 10.31.777 4.43 1.377 6.162 5.844 3.987 9.866-.682 1.26-1.73 1.406-2.934 1.34-1.954-.106-2.433-1.58-2.625-3.096-.599-4.73-3.564-5.537-7.54-4.628-2.3.526-3.788 2.04-4.384 4.316-.606 2.311.091 4.224 1.927 5.784 2.853 2.426 6.447 3.394 9.69 5.051 4.115 2.103 7.736 4.596 8.205 9.807.674 7.484-2.418 11.946-9.711 14.027-4.474 1.277-8.851.806-13.299-.182-4.553-1.011-6.445-3.586-5.69-8.218.267-1.646.038-3.43 2.312-3.8 2.345-.38 3.505.903 3.725 2.973.583 5.492 4.225 6.06 8.61 5.58 3.174-.347 5.303-2.138 6.04-5.129.744-3.016-.996-5.116-3.529-6.471-3.365-1.801-6.813-3.449-10.532-5.372zM370.675 365.759c5.242-4.282 10.821-4.649 16.785-3.224 3.67.877 5.444 2.899 4.852 6.762-.244 1.594.118 3.494-2.19 3.885-2.358.4-3.348-.91-3.654-3.015-.421-2.898-2.002-4.56-5.017-4.335-2.653.197-4.867 1.367-5.8 4.02-.973 2.773.215 5.01 2.561 6.377 2.861 1.667 5.975 2.894 8.904 4.453 5.38 2.864 7.709 6.916 7.067 12.017-.67 5.332-3.662 8.385-9.693 9.957-4.154 1.083-8.206.497-12.322-.391-4.615-.996-5.834-3.795-5.005-8.052.306-1.568.742-2.93 2.656-3.06 1.83-.127 3.044.886 3.112 2.527.235 5.724 4.042 5.616 8.082 5.17 2.709-.298 4.754-1.623 5.434-4.39.71-2.896-.842-4.819-3.203-6.104-2.625-1.428-5.405-2.57-8.025-4.006-7.795-4.272-9.435-10.62-4.544-18.591zM269.44 371.644c2.525 7.463 4.924 14.556 7.358 21.637.797 2.32 1.226 4.822 4.251 5.651 1.664.457 1.827 1.902.4 3.01-1.524 1.183-14.207.001-16.128-1.387.116-2.37 2.742-1.473 3.895-3.174-.535-2.833-.088-6.94-4.77-6.874-3.651.053-8.664-2.636-10.433 3.591-.616 2.165-.939 3.792 1.773 4.728 1.594.551 1.811 1.893.349 2.994-1.776 1.337-9.982.21-12.297-1.971 6.297-1.552 6.675-7.04 8.294-11.741 2.384-6.922 4.771-13.843 7.198-20.75.743-2.115.941-4.55 4.202-4.75 3.457-.214 3.526 2.337 4.305 4.422.525 1.403.995 2.825 1.602 4.614m-4.414 11.548l-3.312-9.457c-1.732 4.223-4.492 7.809-3.926 12.758 2.77-.72 6.375 2.55 7.238-3.301zM461.751 246.462c2.284-4.892.994-9.77 1.282-14.536.17-2.823.074-5.665.014-8.497-.102-4.77 1.583-10.252-4.935-11.948.235-2.162 1.353-2.538 2.558-2.556 4.498-.068 8.998-.084 13.496-.047 1.143.01 2.457.08 2.784 1.552.27 1.214-.552 1.94-1.573 2.173-3.331.757-3.234 3.286-3.225 5.852.028 7.5.012 15 .035 22.499.01 2.807-.5 5.886 3.664 6.421 1.06.136 1.653 1.11 1.356 2.283-.228.903-.92 1.434-1.82 1.427a886.447 886.447 0 01-15.96-.254c-.61-.016-1.206-.524-1.259-.549.197-2.908 2.064-2.848 3.583-3.82zM299.611 353.9c-4.779 1.512-8.886 1.12-12.439-2.074-.855-.768-1.77-1.788-.82-2.986.902-1.136 2.075-.792 3.068.022 4.005 3.285 7.96 2.376 11.93-.073 3.888-2.4 8.187-2.673 12.494-1.902 2.903.52 5.74 1.626 6.036 5.766-4.007 1.086-6.386-3.267-10.227-2.601-3.563.618-6.491 2.38-10.042 3.848z" />

  <path fill="gold"
    d="M288.764 193.83c1.074.339 1.841.548 3.075.885-.395-4.92-2.269-9.02-3.499-13.255-1.226-4.223-3.105-8.268-2.633-13.219l17.628 23.482 10.874-32.969 19.7 26.97 10.936-23.505c2.01 8.974-.59 17.654.978 27.292l29.887-26.307c1.4 1.867.361 2.994-.138 4.118-12.899 29.062-25.866 58.094-38.675 87.195-1.547 3.514-3.043 4.864-7.07 3.326-4.674-1.785-9.566-1.053-13.99 1.4-2.513 1.391-4.083 1.052-5.756-1.426-17.144-25.393-34.389-50.717-51.6-76.064-.46-.677-.958-1.38-.02-3.022 9.959 4.97 19.978 9.97 30.303 15.099zM381.831 158.718c-2.763-.237-3.875-1.636-3.521-3.988.217-1.443 1.298-2.247 2.753-2.4 1.437-.15 2.66.366 3.256 1.698 1.013 2.27.064 3.768-2.488 4.69zM250.543 168.53c2.596-.868 4.24-.186 4.844 2.176.29 1.139.032 2.35-1.088 3.044-1.392.863-2.912.867-4.101-.251-1.592-1.498-1.429-3.185.345-4.969zM315.145 153.062c-2.092 1.6-3.788 1.312-5.005-.452-.921-1.334-.78-2.908.429-4.095 1.059-1.041 2.484-1.113 3.694-.402 1.863 1.094 2.273 2.735.882 4.949z" />
</svg>