<svg height="800" width="800" xmlns="http://www.w3.org/2000/svg" viewBox="0 0 368.404 368.404">
	<path
		d="M360.304 121.154l.01.01-.01.02a59.687 59.687 0 01-4.51 19.86c-1.17 2.87-2.6 5.68-4.26 8.4-43.44 71.21-44.95 163.74-43.44 201.63.43 10.95 1.12 17.33 1.12 17.33h-16.46c.74-5.77 1.34-11.56 1.81-17.33 4.22-50.91-1.14-100.21-6.33-125.42-2.82-13.63-20.09-18.24-29.12-7.65-26.07 30.59-43.28 73.65-53.43 105.86a63.737 63.737 0 01-17.03 27.21l-.36.33c-11.46 10.67-26.73 17-43.16 17h-95.07a43.576 43.576 0 01-34.8-17.33 43.43 43.43 0 01-6.18-11.38c-3.65-10.04 2.36-20.94 12.77-23.36 63.74-14.87 70.61-52.19 70.61-52.19l8.79.57c37.8 2.46 73.75-16.58 92.97-49.21l104.93-178.17 39.36 33.37c15.15 12.84 22.809 31.7 21.79 50.45z"
		fill="#6bc0dd" />
	<circle cx="101.737" cy="297.482" r="7.407" fill="#fff" />
	<circle cx="75.811" cy="320.444" r="7.407" fill="#fff" />
	<circle cx="109.315" cy="327.004" r="7.407" fill="#fff" />
	<circle cx="320.342" cy="79.279" r="7.407" fill="#fff" />
	<circle cx="335.341" cy="109.278" r="7.407" fill="#fff" />
	<g fill="#54dae8">
		<path d="M259.156 74.148a3 3 0 01-3-3V3a3 3 0 116 0v68.148a3 3 0 01-3 3z" />
		<path d="M293.23 40.074h-68.148a3 3 0 110-6h68.148a3 3 0 110 6z" />
	</g>
	<g fill="#54dae8">
		<path d="M77.404 274.148a3 3 0 01-3-3V227a3 3 0 116 0v44.148a3 3 0 01-3 3z" />
		<path d="M99.478 252.074H55.329a3 3 0 110-6h44.148a3 3 0 01.001 6z" />
	</g>
	<g fill="#54dae8">
		<path d="M239.404 104.111a3 3 0 01-3-3V71.037a3 3 0 116 0v30.074a3 3 0 01-3 3z" />
		<path d="M254.441 89.074h-30.074a3 3 0 110-6h30.074a3 3 0 110 6z" />
	</g>
	<path
		d="M360.304 121.154c-6.902 11.313-17.538 27.073-27.774 43.439-12.713 20.325-35.492 31.589-59.445 30.61-.481-.02-.965-.03-1.451-.03-9.78 0-19.06 4.3-25.46 11.8-15.55 18.25-38.01 52.45-56.7 111.78a46.92 46.92 0 01-12.49 19.96c-7.326 6.928-16.551 11.203-26.411 12.36H15.263a43.576 43.576 0 0034.8 17.33h95.07c16.428 0 31.693-6.334 43.154-17h.006l.36-.33a63.737 63.737 0 0017.03-27.21c10.15-32.21 27.36-75.27 53.43-105.86 9.03-10.59 26.3-5.98 29.12 7.65 5.19 25.21 10.55 74.51 6.33 125.42h13.53c-1.51-37.89 0-130.42 43.44-201.63 1.66-2.72 3.09-5.53 4.26-8.4l4.51-19.86.01-.02v-.02c0 .001 0 .011-.009.011z"
		fill="#509bad" />
	<path d="M309.214 368.404h-16.46c.74-5.77 1.34-11.56 1.81-17.33h13.53c.429 10.95 1.12 17.33 1.12 17.33z"
		fill="#38707f" />
</svg>