<svg width="315.511" height="17.343" fill="gold" xmlns="http://www.w3.org/2000/svg">
  <path
    d="M166.774 7.756H286.72v1.83H166.774zM289.501 9.88V7.462a1.135 1.135 0 10-2.27 0V9.88a1.135 1.135 0 102.27 0zM293.189 10.181v-3.02a1.418 1.418 0 00-2.836 0v3.02a1.418 1.418 0 002.836 0zM297.532 10.596v-3.85a1.808 1.808 0 00-3.616 0v3.85a1.808 1.808 0 003.616 0zM304.735.097c-.649.372-.829 1.467-1.02 2.117-.251.853-.47 1.733-.8 2.56.026-.065-.196.552 0 0-.755 2.122-2.777 3.534-5.032 3.451 3.403.904 7.889-.579 8.644-4.397.173-.874.129-1.819-.222-2.645-.229-.54-.864-1.49-1.57-1.086z" />
  <path
    d="M307.238 4.625c-.427 1.313-1.193 2.368-2.502 2.893 1.92-.014 4.513-.26 5.592-2.117.471-.81.762-2.544-.438-2.926-1.225-.39-2.345 1.1-2.633 2.103-.133.421-.068.205-.019.047zM302.164 11.168c1.024 1.35 1.267 3.18 1.792 4.752.185.554.539 1.642 1.335 1.383.694-.226 1.055-1.093 1.211-1.737.383-1.587-.136-3.387-1.26-4.562-1.855-1.964-4.792-2.563-7.359-1.882a5.094 5.094 0 014.281 2.046zM306.889 11.84c.498 1.01.633 2.065 1.652 2.732 1 .63 2.085.28 2.193-.973.089-1.026-.486-2.039-1.307-2.624a5.18 5.18 0 01-.078-.054c-1.394-.886-2.991-1.078-4.613-1.09.975.391 1.687 1.064 2.153 2.01zM304.252 8.671c4.802.182 11.259 4.368 11.259 0s-6.376-.19-11.259 0zM28.79 7.756h119.946v1.83H28.79zM28.278 9.88V7.462a1.135 1.135 0 10-2.27 0V9.88a1.135 1.135 0 102.27 0zM25.158 10.181v-3.02a1.418 1.418 0 00-2.836 0v3.02a1.418 1.418 0 002.836 0zM21.595 10.596v-3.85a1.808 1.808 0 00-3.616 0v3.85a1.808 1.808 0 003.616 0zM10.776 17.245c.648-.37.829-1.467 1.02-2.117.251-.852.47-1.734.8-2.56-.026.065.196-.552 0 0 .755-2.122 2.777-3.534 5.032-3.45-3.403-.905-7.888.578-8.644 4.396-.173.873-.128 1.82.222 2.645.228.541.864 1.49 1.57 1.086z" />
  <path
    d="M8.272 12.717c.427-1.313 1.193-2.368 2.501-2.893-1.92.014-4.513.261-5.592 2.118-.471.811-.762 2.544.437 2.926 1.225.39 2.345-1.099 2.633-2.103.135-.42.071-.206.021-.048zM13.347 6.174c-1.024-1.349-1.267-3.18-1.792-4.752C11.37.868 11.016-.22 10.22.04c-.694.226-1.055 1.093-1.211 1.737-.383 1.587.136 3.387 1.26 4.562 1.855 1.964 4.792 2.563 7.359 1.882a5.095 5.095 0 01-4.281-2.046zM6.967 2.771c-1-.629-2.085-.28-2.193.973-.088 1.026.486 2.04 1.307 2.624l.078.054c1.394.886 2.991 1.078 4.614 1.091-.976-.392-1.688-1.066-2.153-2.01-.498-1.009-.633-2.066-1.653-2.732zM0 8.671c0 4.368 6.376.19 11.259 0C6.457 8.49 0 4.303 0 8.671zM160.541 8.671c0-1.592-1.234-2.882-2.756-2.882-1.522 0-2.756 1.29-2.756 2.882s1.234 2.882 2.756 2.882c1.522 0 2.756-1.29 2.756-2.882z" />
  <ellipse cx="163.504" cy="8.671" rx="2.106" ry="2.202" />
  <ellipse cx="152.006" cy="8.671" rx="2.106" ry="2.202" />
</svg>